<?xml version="1.0" encoding="utf-8"?>
<!-- Generator: Adobe Illustrator 25.4.1, SVG Export Plug-In . SVG Version: 6.00 Build 0)  -->
<svg version="1.1" id="Слой_1" xmlns="http://www.w3.org/2000/svg" xmlns:xlink="http://www.w3.org/1999/xlink" x="0px" y="0px"
	 viewBox="0 0 48 41" style="enable-background:new 0 0 48 41;" xml:space="preserve">
<style type="text/css">
	.st0{clip-path:url(#SVGID_00000145054920242338797850000001692978641472376471_);}
	.st1{fill:#FFFFFF;}
</style>
<g>
	<defs>
		<rect id="SVGID_1_" y="0" width="48" height="40.7"/>
	</defs>
	<clipPath id="SVGID_00000136394648366871498940000009146462849560897672_">
		<use xlink:href="#SVGID_1_"  style="overflow:visible;"/>
	</clipPath>
	<g style="clip-path:url(#SVGID_00000136394648366871498940000009146462849560897672_);">
		<path class="st1" d="M42.6,8.5h-5.1V3.5c0-0.9-0.4-1.8-1-2.4c-0.6-0.6-1.5-1-2.4-1H13.9c-0.9,0-1.8,0.4-2.4,1
			c-0.6,0.6-1,1.5-1,2.4v5.1H5.4c-1.3,0-2.6,0.5-3.6,1.5c-1,1-1.5,2.2-1.5,3.6v23.7c0,0.9,0.4,1.8,1,2.4c0.6,0.6,1.5,1,2.4,1h40.6
			c0.9,0,1.8-0.4,2.4-1c0.6-0.6,1-1.5,1-2.4V13.6c0-1.3-0.5-2.6-1.5-3.6C45.2,9.1,43.9,8.5,42.6,8.5z M13.9,3.5h20.3v5.1H13.9V3.5z
			 M44.3,37.3H3.7V22h13.5v8.4h13.5V22h13.5V37.3z M20.6,22h6.8v5.1h-6.8V22z M3.7,18.7v-5.1c0-0.4,0.2-0.9,0.5-1.2
			c0.3-0.3,0.7-0.5,1.2-0.5h37.2c0.4,0,0.9,0.2,1.2,0.5c0.3,0.3,0.5,0.7,0.5,1.2v5.1H3.7z"/>
	</g>
</g>
</svg>
