<?xml version="1.0" encoding="utf-8"?>
<!-- Generator: Adobe Illustrator 25.4.1, SVG Export Plug-In . SVG Version: 6.00 Build 0)  -->
<svg version="1.1" id="Слой_1" xmlns="http://www.w3.org/2000/svg" xmlns:xlink="http://www.w3.org/1999/xlink" x="0px" y="0px"
	 viewBox="0 0 48 48" style="enable-background:new 0 0 48 48;" xml:space="preserve">
<style type="text/css">
	.st0{clip-path:url(#SVGID_00000153687842284104724310000015237425819344518070_);}
	.st1{fill:#FFFFFF;}
</style>
<g>
	<defs>
		<rect id="SVGID_1_" y="0" width="48" height="47.4"/>
	</defs>
	<clipPath id="SVGID_00000121979424350370106840000017329294254178587062_">
		<use xlink:href="#SVGID_1_"  style="overflow:visible;"/>
	</clipPath>
	<g style="clip-path:url(#SVGID_00000121979424350370106840000017329294254178587062_);">
		<path class="st1" d="M46.3,9.9V2.3c0-1-0.9-1.9-1.9-1.9H3.8c-1.1,0-1.9,0.8-1.9,1.9v7.6c-1,0.1-1.8,0.9-1.8,1.9v7.8
			c0,1.4,0.3,2.9,0.9,4.2c0.3,0.6,0.6,1.2,0.9,1.7v20.4c0,1,0.9,1.9,1.9,1.9h40.6c1.1,0,1.9-0.8,1.9-1.9V25.5
			c0.4-0.5,0.7-1.1,0.9-1.7c0.6-1.3,0.9-2.7,0.9-4.2v-7.8C48.1,10.8,47.3,10,46.3,9.9z M6.2,4.7H42v5.2H6.2V4.7z M27.9,43.6h-7.7
			v-6.2h7.7V43.6z M42,43.6H31.8v-8.1c0-1-0.9-1.9-1.9-1.9H18.3c-1.1,0-1.9,0.8-1.9,1.9v8.1H6.2V29.2c0.2,0.1,0.4,0.2,0.5,0.2
			c1.3,0.6,2.8,0.8,4.2,0.8c1.5,0,2.9-0.3,4.2-0.8c0.8-0.3,1.6-0.8,2.3-1.3c0,0,0,0,0,0c0.7,0.5,1.5,1,2.3,1.3
			c1.3,0.6,2.8,0.8,4.2,0.8c1.5,0,2.9-0.3,4.2-0.8c0.8-0.3,1.6-0.8,2.3-1.3c0,0,0,0,0,0c0.7,0.5,1.5,1,2.3,1.3
			c1.3,0.6,2.8,0.8,4.2,0.8s2.9-0.3,4.2-0.8c0.2-0.1,0.4-0.2,0.5-0.2V43.6z M43.8,19.6c0,3.5-2.9,6.4-6.6,6.4
			c-2.4,0-4.6-1.3-5.7-3.3c-0.2-0.3-0.5-0.5-0.8-0.5h0c-0.3,0-0.7,0.2-0.8,0.5c-0.6,1-1.4,1.8-2.4,2.4c-1,0.6-2.1,0.9-3.3,0.9
			c-2.4,0-4.6-1.3-5.7-3.2c-0.2-0.3-0.5-0.5-0.9-0.5s-0.7,0.2-0.9,0.5c-0.6,1-1.4,1.8-2.4,2.4c-1,0.6-2.1,0.9-3.3,0.9
			c-3.6,0-6.6-2.9-6.6-6.4v-5.4c0,0,0,0,0,0h39.3c0,0,0,0,0,0V19.6z"/>
	</g>
</g>
</svg>
