<?xml version="1.0" encoding="utf-8"?>
<!-- Generator: Adobe Illustrator 25.4.1, SVG Export Plug-In . SVG Version: 6.00 Build 0)  -->
<svg version="1.1" id="Слой_1" xmlns="http://www.w3.org/2000/svg" xmlns:xlink="http://www.w3.org/1999/xlink" x="0px" y="0px"
	 viewBox="0 0 48 38" style="enable-background:new 0 0 48 38;" xml:space="preserve">
<style type="text/css">
	.st0{clip-path:url(#SVGID_00000113318764964537038940000009933303062750535834_);}
	.st1{fill:#0D5C63;}
</style>
<g>
	<g>
		<defs>
			<rect id="SVGID_1_" y="0" width="48" height="37.9"/>
		</defs>
		<clipPath id="SVGID_00000065046447089235317910000000052156709930153111_">
			<use xlink:href="#SVGID_1_"  style="overflow:visible;"/>
		</clipPath>
		<g style="clip-path:url(#SVGID_00000065046447089235317910000000052156709930153111_);">
			<path class="st1" d="M29.1,8.6h12V12h-12C29.1,12,29.1,8.6,29.1,8.6z"/>
			<path class="st1" d="M29.1,17.2h12v3.4h-12C29.1,20.6,29.1,17.2,29.1,17.2z"/>
			<path class="st1" d="M29.1,25.9h12v3.4h-12C29.1,29.3,29.1,25.9,29.1,25.9z"/>
			<path class="st1" d="M44.6,0H3.4C2.5,0,1.7,0.4,1,1C0.4,1.7,0,2.5,0,3.5v31c0,0.9,0.4,1.8,1,2.4c0.6,0.6,1.5,1,2.4,1h41.1
				c0.9,0,1.8-0.4,2.4-1c0.6-0.6,1-1.5,1-2.4v-31c0-0.9-0.4-1.8-1-2.4C46.3,0.4,45.5,0,44.6,0z M3.4,3.5h18.9v31H3.4V3.5z
				 M25.7,34.5v-31h18.9v31H25.7z"/>
		</g>
	</g>
</g>
</svg>
