<?xml version="1.0" encoding="utf-8"?>
<!-- Generator: Adobe Illustrator 25.4.1, SVG Export Plug-In . SVG Version: 6.00 Build 0)  -->
<svg version="1.1" id="Слой_1" xmlns="http://www.w3.org/2000/svg" xmlns:xlink="http://www.w3.org/1999/xlink" x="0px" y="0px"
	 viewBox="0 0 72 72" style="enable-background:new 0 0 72 72;" xml:space="preserve">
<style type="text/css">
	.st0{fill:#0D5C63;}
</style>
<path class="st0" d="M55.9,39c-0.4-0.4-0.8-0.6-1.2-0.8c-0.5-0.2-1-0.3-1.4-0.3c-0.5,0-1,0.1-1.4,0.3c-0.5,0.2-0.9,0.5-1.2,0.8l-6,6
	c-2.8-0.8-8-2.7-11.3-6s-5.2-8.5-6-11.3l6-6c0.4-0.4,0.6-0.8,0.8-1.2c0.2-0.5,0.3-1,0.3-1.4c0-0.5-0.1-1-0.3-1.4
	c-0.2-0.5-0.5-0.9-0.8-1.2L18,1.1c-0.4-0.4-0.8-0.6-1.2-0.8c-0.5-0.2-1-0.3-1.4-0.3c-0.5,0-1,0.1-1.4,0.3c-0.5,0.2-0.9,0.5-1.2,0.8
	L2.4,11.4c-1.4,1.4-2.3,3.4-2.2,5.4C0.3,22.2,1.7,41,16.5,55.7C31.2,70.5,50,71.9,55.4,72h0.1c2,0,3.9-0.8,5.3-2.2l10.3-10.3
	c0.4-0.4,0.6-0.8,0.8-1.2c0.2-0.5,0.3-1,0.3-1.4c0-0.5-0.1-1-0.3-1.4c-0.2-0.5-0.5-0.9-0.8-1.2L55.9,39z M55.4,64.4
	c-4.7-0.1-20.9-1.3-33.6-14.1C9,37.5,7.8,21.3,7.7,16.7l7.6-7.6l9.8,9.8l-4.9,4.9c-0.4,0.4-0.8,1-1,1.6s-0.2,1.2-0.1,1.9
	c0.1,0.4,2.3,10.8,8.6,17.1s16.6,8.5,17.1,8.6c0.6,0.1,1.3,0.1,1.9-0.1c0.6-0.2,1.2-0.5,1.6-1l4.9-4.9l9.8,9.8L55.4,64.4z"/>
</svg>
