<?xml version="1.0" encoding="utf-8"?>
<!-- Generator: Adobe Illustrator 25.4.1, SVG Export Plug-In . SVG Version: 6.00 Build 0)  -->
<svg version="1.1" id="Слой_1" xmlns="http://www.w3.org/2000/svg" xmlns:xlink="http://www.w3.org/1999/xlink" x="0px" y="0px"
	 viewBox="0 0 57 71" style="enable-background:new 0 0 57 71;" xml:space="preserve">
<style type="text/css">
	.st0{fill:#0D5C63;}
</style>
<path class="st0" d="M28.5,42c8,0,14.5-6.3,14.5-14s-6.5-14-14.5-14c-8,0-14.5,6.3-14.5,14S20.5,42,28.5,42z M28.5,21
	c4,0,7.2,3.1,7.2,7s-3.3,7-7.2,7s-7.2-3.1-7.2-7S24.5,21,28.5,21z"/>
<path class="st0" d="M26.4,70.3c0.6,0.4,1.3,0.7,2.1,0.7s1.5-0.2,2.1-0.7c1.1-0.8,26.5-19.1,26.4-41.9C57,12.7,44.2,0,28.5,0
	S0,12.7,0,28.4C-0.1,51.3,25.4,69.6,26.4,70.3z M28.5,7.1c11.8,0,21.4,9.6,21.4,21.3C49.9,44.2,34.2,58.3,28.5,63
	C22.8,58.3,7.1,44.2,7.1,28.4C7.1,16.7,16.7,7.1,28.5,7.1z"/>
</svg>
