<?xml version="1.0" encoding="utf-8"?>
<!-- Generator: Adobe Illustrator 25.4.1, SVG Export Plug-In . SVG Version: 6.00 Build 0)  -->
<svg version="1.1" id="Слой_1" xmlns="http://www.w3.org/2000/svg" xmlns:xlink="http://www.w3.org/1999/xlink" x="0px" y="0px"
	 viewBox="0 0 70 71" style="enable-background:new 0 0 70 71;" xml:space="preserve">
<style type="text/css">
	.st0{fill:#FFFFFF;}
</style>
<path class="st0" d="M68.3,1.2c-0.4-0.4-0.9-0.7-1.4-0.8c-0.5-0.1-1.1-0.1-1.6,0.1l-63.5,24c-0.5,0.2-1,0.6-1.4,1.1
	C0.2,26.1,0,26.7,0,27.3c0,0.6,0.2,1.2,0.5,1.7c0.3,0.5,0.8,0.9,1.4,1.1l27.7,11.5l11.1,28.8c0.2,0.5,0.6,1,1,1.3
	c0.5,0.3,1,0.5,1.6,0.5c0.6,0,1.1-0.2,1.6-0.6s0.8-0.8,1-1.4L69,4.3c0.2-0.5,0.2-1.1,0.1-1.7C69,2.1,68.7,1.6,68.3,1.2z M43.2,60.9
	l-8-21L49,25.5l-4.1-4.2L31,35.8l-20.1-8.5l50.6-19L43.2,60.9z"/>
</svg>
